<svg version="1.1" id="Layer_1" xmlns="http://www.w3.org/2000/svg" xmlns:xlink="http://www.w3.org/1999/xlink" x="0px" y="0px"
	 width="100%" viewBox="0 0 1000 1000" enable-background="new 0 0 1000 1000" xml:space="preserve">
<path fill="#000000" opacity="1.000000" stroke="none" 
	d="
M656.000000,1001.000000 
	C437.333344,1001.000000 219.166672,1001.000000 1.000000,1001.000000 
	C1.000000,667.666687 1.000000,334.333344 1.000000,1.000000 
	C334.333344,1.000000 667.666687,1.000000 1001.000000,1.000000 
	C1001.000000,334.333344 1001.000000,667.666687 1001.000000,1001.000000 
	C886.166687,1001.000000 771.333313,1001.000000 656.000000,1001.000000 
M736.742432,651.654602 
	C736.855652,651.793884 736.968933,651.933167 737.005798,652.909241 
	C736.670410,654.797058 736.335083,656.684875 735.923828,658.999939 
	C740.461426,658.999939 744.764465,658.910828 749.061523,659.032898 
	C751.705200,659.108032 752.587097,658.215942 753.124573,655.427246 
	C755.132263,645.010376 757.660034,634.694519 759.945190,624.330261 
	C760.845947,620.244568 762.736328,616.701782 767.121033,616.194397 
	C769.722473,615.893433 770.608337,621.744263 769.579041,627.062988 
	C768.105103,634.679138 766.922485,642.372437 766.084534,650.083679 
	C765.509277,655.377991 771.018066,659.465515 775.327393,660.025085 
	C788.255737,661.704041 796.971985,650.313416 797.633667,640.318481 
	C792.443176,638.287781 792.194336,643.178284 789.932861,645.529968 
	C788.368591,647.156799 785.590149,649.012512 783.755249,648.662720 
	C780.836060,648.106262 780.420227,645.087280 781.350464,642.195129 
	C781.940247,640.361511 782.437012,638.477600 782.750671,636.579102 
	C783.885254,629.713257 785.373901,622.863403 785.863098,615.946350 
	C786.282043,610.022644 782.931824,606.432861 776.901855,606.140503 
	C772.351013,605.919861 767.737488,606.992981 763.434814,607.459595 
	C758.521423,604.117432 752.678162,607.029480 747.251160,605.819458 
	C745.773010,612.856323 744.408508,619.465820 742.992310,626.064331 
	C741.438538,633.303589 740.665466,640.758972 733.882812,645.775208 
	C728.961182,649.415039 723.718994,651.507629 718.036377,649.351929 
	C712.977600,647.432922 715.416138,642.395447 715.182068,638.320190 
	C726.230347,636.487793 735.185913,631.846924 738.527100,620.025513 
	C740.135925,614.333313 738.483154,607.313232 734.235291,606.296326 
	C729.956909,605.272034 725.055542,604.817383 720.858215,605.855652 
	C706.253906,609.468140 702.021240,621.596069 699.023499,634.379456 
	C698.179565,637.978455 698.282776,641.982666 696.671997,645.150452 
	C695.695923,647.069946 692.027466,649.033020 689.992676,648.660400 
	C687.151062,648.140076 687.044373,645.307068 687.780029,641.993225 
	C689.704712,633.323975 690.961304,624.470886 691.885498,615.628479 
	C692.431213,610.407410 688.713623,606.197388 683.602478,606.136719 
	C678.813782,606.079834 674.011475,607.161682 669.346619,607.726501 
	C670.792908,600.871765 672.427490,593.124695 674.221375,584.622314 
	C668.096741,585.525513 662.693237,586.322388 657.130981,587.142639 
	C657.056458,588.680420 657.170044,590.018738 656.903381,591.276489 
	C653.962952,605.149231 650.630005,618.948975 648.104736,632.895569 
	C646.591675,641.251953 641.641968,646.249573 634.378967,648.939331 
	C631.207092,650.114136 626.524780,650.303101 623.772949,648.743591 
	C620.266296,646.756287 620.495850,642.066467 621.436584,638.069946 
	C621.695312,636.970825 621.651978,635.780518 622.026855,634.732056 
	C624.331055,628.286987 626.421997,621.736084 629.264221,615.532104 
	C630.047241,613.822998 633.151611,613.177368 635.190857,612.043762 
	C635.461304,614.206299 635.843201,616.362915 635.956909,618.533691 
	C636.017273,619.686035 635.612671,620.862793 635.187012,623.410767 
	C638.470337,622.744568 642.206177,623.119629 643.561279,621.501160 
	C647.788818,616.452332 645.351440,607.966675 639.763672,605.846130 
	C634.141907,603.712708 623.384583,605.495239 618.676514,609.817871 
	C609.834595,617.935974 605.502991,628.090271 605.031677,639.952881 
	C604.868713,644.053711 602.823059,646.622986 599.269165,648.242432 
	C595.377991,650.015503 592.260132,648.062012 593.083618,643.930542 
	C595.276367,632.930115 597.867920,622.009216 600.330688,610.922241 
	C602.626099,610.922241 604.586426,610.922241 606.704468,610.922241 
	C606.704468,609.157227 606.704468,607.616028 606.704468,605.904419 
	C604.760315,605.904419 603.111694,605.904419 601.300293,605.904419 
	C602.482544,600.275452 603.623108,594.845337 604.830383,589.097595 
	C599.188538,589.878540 593.633118,590.647461 588.098450,591.413513 
	C584.604431,605.736084 584.604431,605.736084 580.279297,606.822144 
	C581.333435,608.785828 582.285400,610.559326 583.526184,612.870789 
	C581.821655,620.871277 580.198425,629.917969 577.848267,638.771667 
	C576.988708,642.009766 574.751343,645.108459 572.441162,647.627441 
	C571.470337,648.686096 568.068665,648.891968 566.886353,648.003235 
	C565.638611,647.065308 564.980896,644.210022 565.338562,642.451233 
	C567.776794,630.461792 570.550720,618.540588 573.349670,606.000061 
	C568.620483,606.000061 564.333252,606.202271 560.076355,605.930237 
	C557.148926,605.743164 556.477295,607.409119 556.005493,609.598755 
	C554.715759,615.584167 553.261414,621.540710 552.194275,627.565735 
	C550.951172,634.583984 549.584229,641.633179 549.133301,648.723755 
	C548.699097,655.551819 553.606628,659.925720 560.333130,660.016907 
	C567.301147,660.111328 572.818665,657.112244 577.480408,652.051331 
	C580.182861,662.244080 594.714233,663.382996 605.552490,652.131714 
	C612.784058,662.844238 629.980469,663.671448 644.015930,650.047180 
	C643.465088,653.217834 642.974915,656.039001 642.492798,658.814209 
	C648.085022,658.814209 653.384521,658.814209 658.490051,658.814209 
	C659.691223,653.254211 660.858582,647.914490 661.996155,642.568359 
	C663.170959,637.047485 664.066956,631.450989 665.577271,626.024597 
	C666.370667,623.174133 667.878662,620.344788 669.729736,618.040771 
	C670.665894,616.875488 673.615112,615.990967 674.690552,616.621887 
	C675.954773,617.363708 676.979980,620.026062 676.706604,621.614136 
	C675.508850,628.571960 673.518005,635.394348 672.347168,642.355469 
	C670.407532,653.887878 674.454529,661.614868 687.376526,659.730225 
	C691.797546,659.085510 695.774048,655.392151 699.399048,653.396912 
	C701.894348,655.059143 704.609436,657.823547 707.874817,658.868896 
	C718.859192,662.385132 728.174255,658.453003 736.742432,651.654602 
M363.891052,433.323212 
	C358.961639,427.079956 353.801727,421.001587 349.179016,414.538940 
	C345.756042,409.753601 342.277130,404.760803 340.175812,399.336426 
	C337.132233,391.479553 334.470276,383.278778 333.193726,374.986359 
	C331.805542,365.969055 331.908569,356.678619 331.923950,347.508179 
	C331.931091,343.244385 332.839233,338.850403 334.105011,334.752075 
	C335.890930,328.969666 338.404907,323.413391 340.575195,317.748016 
	C342.602539,312.455811 346.358276,308.737183 350.204132,304.599487 
	C355.479401,298.923889 361.018951,294.159241 367.909515,291.167023 
	C372.554413,289.150024 377.740540,288.361816 382.703674,287.099213 
	C389.652313,285.331604 396.622772,284.066895 403.801239,285.936096 
	C407.032715,286.777527 410.397095,287.126801 413.604095,288.040222 
	C420.309875,289.950226 426.997345,291.951050 433.595917,294.197723 
	C436.161926,295.071411 438.438385,296.768921 440.900970,297.981018 
	C443.015259,299.021637 445.414703,299.602539 447.325470,300.914734 
	C453.244812,304.979767 458.991211,309.296600 465.340942,313.904816 
	C465.120117,312.400543 465.285431,311.138306 464.755920,310.332855 
	C462.452118,306.828491 459.922607,303.473389 457.522430,300.031097 
	C456.148041,298.059967 455.215332,295.621338 453.466980,294.103790 
	C449.831451,290.948151 445.960999,287.981323 441.868805,285.451843 
	C434.878540,281.131073 428.804413,275.355347 420.676086,272.783081 
	C416.478333,271.454681 412.775543,268.624817 408.625732,267.069214 
	C400.216858,263.917053 391.691650,262.073242 382.416992,262.467804 
	C376.125458,262.735474 370.041107,263.588013 364.318878,265.483307 
	C357.741272,267.661926 351.007385,269.916840 345.494812,274.727386 
	C342.381104,277.444580 337.950378,278.708557 335.011230,281.554779 
	C331.732635,284.729706 329.464783,288.950958 326.770996,292.726776 
	C321.782684,299.718628 317.019440,306.816193 314.985992,315.362762 
	C313.733704,320.626099 312.261414,325.836884 310.988312,331.095520 
	C310.342987,333.761200 309.611145,336.462952 309.455170,339.179260 
	C308.999634,347.111420 308.268951,355.087982 308.688263,362.991852 
	C309.050293,369.816132 310.496765,376.646973 312.095428,383.323669 
	C313.729095,390.146698 315.555756,397.037659 318.356140,403.435730 
	C321.284424,410.125977 325.390961,416.313599 329.157990,422.616028 
	C330.351929,424.613586 332.109650,426.274231 333.609344,428.089050 
	C334.087128,427.723053 334.564880,427.357056 335.042664,426.991058 
	C334.330536,432.355438 336.852234,434.903076 340.271027,435.169800 
	C342.330292,437.911011 343.462128,440.065491 345.174866,441.549561 
	C347.913086,443.922272 351.132507,445.730225 353.972595,447.997314 
	C357.189423,450.565155 360.212250,453.376007 363.960083,456.638916 
	C362.883972,481.947327 353.150452,506.445618 346.473724,533.050415 
	C382.375305,524.979431 417.326569,517.257080 453.270264,519.119934 
	C489.762970,521.011292 524.972046,529.201355 559.091797,543.466675 
	C558.888977,542.552673 558.975342,541.402893 558.522827,541.122375 
	C530.998047,524.059021 500.956482,512.682617 469.505798,506.398407 
	C438.429871,500.189056 406.756409,499.644623 374.738342,507.144897 
	C375.533875,500.492462 376.223297,494.233398 377.106201,488.001678 
	C377.210327,487.266785 378.280304,486.286865 379.066345,486.096344 
	C382.509003,485.261871 385.985657,484.441345 389.498383,484.047760 
	C397.533325,483.147522 405.679871,482.990784 413.629791,481.640930 
	C427.318817,479.316559 441.030182,479.056610 454.782318,480.065735 
	C463.691498,480.719452 472.634430,481.554138 481.414581,483.130188 
	C488.917908,484.477020 496.267029,486.812042 503.581024,489.047882 
	C510.707001,491.226166 517.786194,493.617371 524.725220,496.326599 
	C529.484131,498.184692 533.943665,500.798920 538.582336,502.978729 
	C542.736511,504.930786 546.961975,506.730713 551.130066,508.653961 
	C551.675537,508.905670 552.009521,509.586151 552.539062,509.906860 
	C555.453918,511.672424 558.399170,513.387878 561.443604,515.185242 
	C561.941223,514.098938 562.326416,513.257996 562.756653,512.318909 
	C555.266052,507.914398 548.705017,502.041229 540.774414,498.296600 
	C540.488220,498.161438 540.150330,498.128876 539.875183,497.977997 
	C533.794983,494.644135 527.844116,491.044006 521.609680,488.030243 
	C515.331482,484.995361 508.799713,482.474182 502.327789,479.854553 
	C497.259369,477.803070 492.139832,475.868622 486.988342,474.035828 
	C484.698944,473.221375 482.376587,473.625336 479.766785,472.446381 
	C474.504425,470.069214 468.218719,469.818756 462.308380,469.051300 
	C455.528534,468.170990 448.710449,467.393768 441.886139,467.097198 
	C433.950836,466.752380 425.988159,466.842712 418.042297,466.997467 
	C411.643036,467.122070 405.249786,467.600342 398.856293,467.964050 
	C392.349823,468.334137 385.846313,468.756073 378.791351,469.189087 
	C379.118988,466.867065 379.990356,464.160034 379.782104,461.538818 
	C379.061615,452.469757 378.112885,443.411865 376.971039,434.385162 
	C375.800262,425.129944 374.792542,415.809082 372.808594,406.714325 
	C370.766998,397.355438 367.738556,388.202057 364.894012,379.035706 
	C364.274078,377.038025 362.602356,375.366699 361.415070,373.545074 
	C361.151093,377.409454 361.727234,380.518799 362.220917,383.641205 
	C363.147186,389.500061 364.262756,395.342468 364.859772,401.236267 
	C365.498779,407.544037 365.825378,413.900452 365.915161,420.240906 
	C365.974945,424.464203 365.381165,428.696808 364.730988,433.335571 
	C364.627441,433.482269 364.523926,433.628937 363.891052,433.323212 
M395.561371,406.038086 
	C392.575439,403.967285 389.589478,401.896454 386.603546,399.825653 
	C386.223969,401.312592 386.435516,402.359772 387.068207,402.970978 
	C389.651062,405.466187 392.223511,408.007812 395.056244,410.201202 
	C400.729095,414.593658 406.328339,419.159546 412.409790,422.923859 
	C418.509705,426.699615 425.030151,429.882416 431.610992,432.766693 
	C436.624023,434.963806 441.979431,436.428497 447.261780,437.942474 
	C450.032837,438.736725 452.958710,439.099274 455.841583,439.375183 
	C465.716339,440.320282 475.589081,441.437378 485.490143,441.901886 
	C491.818146,442.198730 498.193481,441.429230 504.549744,441.195312 
	C510.629181,440.971588 516.716919,440.929291 522.790771,440.610687 
	C529.081238,440.280792 535.354065,439.616791 541.644226,439.277802 
	C548.791809,438.892609 555.954834,438.416992 563.101929,438.536285 
	C567.687988,438.612823 573.462280,438.205780 576.533142,440.694305 
	C580.491028,443.901581 583.506409,449.496246 584.714966,454.587860 
	C586.575989,462.429138 586.802917,470.702484 587.269104,478.818634 
	C587.779602,487.707611 588.082275,496.632843 587.891357,505.529755 
	C587.752563,511.999725 586.746155,518.458984 585.980652,524.905762 
	C584.877747,534.193542 583.642517,543.465576 582.310913,553.947571 
	C584.027710,552.563904 585.642212,551.934204 585.877869,550.968201 
	C588.054688,542.044922 589.990417,533.062805 592.006653,524.100159 
	C592.183289,523.315369 592.482361,522.557068 592.642334,521.769714 
	C594.437805,512.934937 596.117615,504.074341 598.111816,495.284943 
	C598.399536,494.016876 600.025757,492.392365 601.291382,492.115417 
	C608.476746,490.543091 615.849304,489.743011 622.946777,487.876282 
	C629.711853,486.096954 636.381348,483.706512 642.793030,480.899689 
	C649.621826,477.910156 657.011536,475.164307 662.484558,470.393982 
	C668.526245,465.127930 675.620911,461.118713 680.630249,454.294281 
	C685.545471,447.598114 690.993042,441.413452 695.152710,434.046417 
	C702.715820,420.651794 705.683472,406.177490 706.930115,391.213135 
	C707.869751,379.933868 707.273499,368.547394 704.787598,357.563660 
	C702.795105,348.759857 699.717529,340.011688 695.775085,331.892639 
	C691.839355,323.787415 686.855530,316.004242 679.156555,310.572388 
	C678.787292,310.311829 678.998169,309.229034 678.934875,308.482697 
	C677.273315,307.635620 674.988098,306.678925 672.920959,305.376068 
	C667.594055,302.018860 662.633179,297.953705 657.014771,295.223846 
	C651.949707,292.762878 646.308533,290.873016 640.741760,290.184540 
	C628.443481,288.663544 616.013123,287.119293 603.672668,287.368683 
	C593.457275,287.575104 583.173584,289.810791 573.135071,292.092865 
	C558.222961,295.482880 543.569519,299.899475 530.058289,307.379150 
	C529.824707,307.508453 529.545044,307.551514 529.301270,307.665619 
	C519.753906,312.135956 510.213745,316.621613 500.658630,321.075317 
	C498.197815,322.222290 495.610107,323.118866 493.220978,324.393463 
	C487.291595,327.556641 481.535431,331.056305 475.527954,334.056885 
	C471.868683,335.884613 467.936554,337.246826 464.014069,338.450165 
	C455.518738,341.056396 447.006531,343.653809 438.381317,345.764984 
	C435.485931,346.473663 432.044006,346.324188 429.168793,345.483398 
	C420.430511,342.928009 411.370758,340.979797 404.028473,335.006653 
	C399.725159,331.505768 395.336548,328.107330 391.093811,324.535095 
	C387.694214,321.672760 384.487457,318.582031 381.109558,315.692657 
	C380.671417,315.317871 379.683563,315.393738 379.026367,315.560455 
	C378.759338,315.628204 378.489105,316.535828 378.575470,316.994385 
	C378.924744,318.848145 379.126587,320.806152 379.895294,322.492035 
	C384.870331,333.403168 389.634399,344.461090 399.156433,352.475983 
	C410.492706,362.017944 423.519745,367.260803 438.319611,367.988434 
	C450.947662,368.609314 463.100128,365.449982 474.734528,361.426605 
	C490.407715,356.006500 505.592163,349.136292 520.860413,342.594513 
	C531.974487,337.832642 542.818237,332.441711 553.913147,327.632538 
	C559.750732,325.102203 565.730957,322.636047 571.892334,321.180084 
	C580.954468,319.038605 590.223938,317.751007 599.430481,316.255432 
	C603.110474,315.657593 606.877136,315.037476 610.570129,315.200653 
	C616.567932,315.465698 622.539246,316.350983 628.518555,317.003662 
	C638.255371,318.066437 646.846985,322.122314 655.382874,326.684753 
	C660.566650,329.455505 661.891235,335.050964 665.889221,338.667023 
	C669.179504,341.642975 672.046204,345.551575 673.863770,349.601898 
	C678.780396,360.558655 679.864685,372.455811 680.942993,384.271912 
	C681.212646,387.227295 681.406738,390.311768 680.865723,393.192322 
	C679.883667,398.420807 678.326294,403.541382 677.004578,408.705841 
	C676.101501,412.234253 675.505127,415.879669 674.223694,419.265411 
	C670.685669,428.613312 664.521118,436.222504 657.391724,443.046509 
	C655.949646,444.426758 653.426758,444.692688 652.023315,446.094360 
	C650.504517,447.611328 650.186768,450.618378 648.522766,451.653015 
	C641.058899,456.293945 633.592834,461.134766 625.567566,464.610352 
	C617.963440,467.903564 609.662354,469.587433 601.605103,471.997833 
	C602.071838,460.966034 604.889343,455.756439 600.291199,441.249573 
	C597.787292,433.350159 593.482605,426.708649 586.861511,423.423523 
	C579.921509,419.980286 571.479004,418.738739 563.589233,418.264038 
	C555.353699,417.768524 546.965576,419.088959 538.695679,420.056610 
	C526.335510,421.502869 514.023621,423.358215 501.685486,424.996368 
	C490.230438,426.517334 478.867310,428.716217 467.152832,427.141724 
	C457.925415,425.901520 448.375641,426.442322 439.354401,424.448578 
	C429.142151,422.191589 418.734283,419.852417 409.913971,413.186737 
	C405.921295,410.169434 400.725830,408.743774 395.561371,406.038086 
M311.964081,641.107727 
	C311.309387,634.123413 310.570892,627.145691 310.026306,620.152771 
	C309.584717,614.482239 309.376099,608.793579 309.028839,602.469788 
	C303.190338,603.400757 297.384155,603.021362 293.223480,605.455017 
	C290.510406,607.042053 290.428772,612.825623 288.742004,616.535400 
	C285.698334,623.229431 282.392303,629.806885 279.080383,636.374878 
	C277.523956,639.461548 275.992737,642.641846 273.887573,645.340942 
	C272.602295,646.988892 270.247314,647.802551 268.372772,648.990845 
	C267.581879,647.613770 266.474091,646.318115 266.092834,644.835693 
	C265.740417,643.465332 265.974030,641.853821 266.279938,640.418945 
	C268.712189,629.011230 271.223297,617.620361 273.726166,606.151123 
	C268.004547,606.151123 262.698700,606.151123 257.275055,606.151123 
	C256.160797,611.788940 255.212524,617.338135 253.944717,622.813354 
	C252.316910,629.843323 250.859756,636.968140 248.418777,643.723206 
	C247.602051,645.983337 243.991135,647.233704 241.657455,648.945679 
	C241.112167,646.356018 239.705856,643.600403 240.167465,641.204712 
	C242.422653,629.500916 245.176224,617.893005 247.766129,606.194336 
	C242.154770,606.194336 236.693481,606.194336 231.267868,606.194336 
	C228.596390,619.346375 226.028900,632.318848 223.300308,645.257324 
	C222.196899,650.489380 224.529175,657.047546 229.459824,658.571167 
	C233.081909,659.690491 237.588211,659.879944 241.145218,658.744507 
	C244.833176,657.567322 247.852280,654.294739 250.894363,652.130432 
	C250.736710,655.236450 252.749756,657.690063 256.212341,659.048462 
	C264.090302,662.138794 270.258545,658.256287 276.137939,653.808411 
	C284.045807,663.185852 297.277069,660.555542 303.617950,656.663696 
	C308.144318,653.885620 312.185852,650.317566 316.746094,646.873657 
	C317.164886,653.282654 320.376282,657.330994 325.953613,658.911133 
	C338.211578,662.384094 348.329346,658.426941 355.494385,650.144897 
	C359.270844,653.225403 362.371277,657.336853 366.420502,658.772827 
	C380.898468,663.907043 396.006744,654.203186 403.021454,638.676270 
	C400.020844,640.256470 398.033478,641.090698 396.282532,642.274536 
	C393.601959,644.086914 391.122742,646.193970 388.488586,648.078857 
	C384.538452,650.905457 379.484955,651.436768 376.107544,648.971802 
	C373.831604,647.310730 373.976501,642.329407 373.057861,638.828308 
	C373.029968,638.721985 373.218933,638.558716 373.306793,638.421997 
	C373.415710,638.302185 373.515289,638.087769 373.634796,638.075989 
	C384.519806,637.003845 395.707855,631.470215 397.676910,616.472839 
	C398.153168,612.845398 397.501709,608.227722 392.856720,606.363159 
	C384.241241,602.904846 372.231293,604.814819 365.163818,615.901978 
	C361.962372,620.924316 359.756500,626.791382 358.165649,632.568970 
	C356.682434,637.955872 356.190948,643.301208 350.849060,646.827332 
	C346.267395,649.851562 341.222626,651.212280 336.485596,649.553955 
	C332.210022,648.057129 332.835052,643.079102 333.046204,639.097778 
	C333.061951,638.800476 333.301422,638.515015 333.379517,638.347290 
	C343.564362,636.742065 351.778900,632.529053 356.118896,622.614197 
	C359.756592,614.303833 356.290192,605.965698 348.476898,605.075562 
	C342.557373,604.401123 336.691284,605.190674 331.724731,608.842285 
	C324.275696,614.319153 320.409973,622.059204 317.897095,630.796570 
	C316.559753,635.446472 318.910126,642.128052 311.133087,644.039490 
	C311.336609,643.188232 311.493896,642.530457 311.964081,641.107727 
M487.373291,604.101868 
	C486.167297,614.286072 490.251282,619.019592 498.873993,617.431641 
	C496.379150,603.547363 500.088745,594.531006 511.262634,588.755615 
	C506.229248,612.445435 501.305847,635.617676 496.363495,658.879150 
	C501.876038,658.879150 507.184235,658.879150 512.652649,658.879150 
	C515.113403,647.164673 517.460571,635.510925 520.103271,623.924561 
	C520.503113,622.171631 522.144043,619.592285 523.451782,619.438110 
	C525.069275,619.247375 527.580994,620.791260 528.528076,622.317078 
	C529.593262,624.033020 529.983887,626.700684 529.553711,628.716492 
	C527.979187,636.094788 525.643372,643.315247 524.180542,650.711121 
	C523.175903,655.790466 524.893372,661.900574 532.083740,661.018555 
	C536.028198,660.534668 539.995850,660.239929 545.299194,659.730652 
	C539.179993,655.808533 539.335571,651.436584 540.861267,646.367859 
	C542.574646,640.675293 543.965698,634.837769 544.890442,628.967773 
	C546.096680,621.311401 542.583923,612.941833 532.712341,613.984741 
	C531.639099,614.098145 530.543518,614.000000 528.791870,614.000000 
	C538.641418,602.570679 548.015686,591.692932 558.092407,580.000061 
	C553.842529,580.000061 551.016113,579.865051 548.212280,580.058044 
	C546.849609,580.151855 545.060181,580.455322 544.277893,581.364258 
	C541.968262,584.047791 540.112183,587.115967 537.992310,589.969421 
	C533.555725,595.941223 529.063843,601.871948 524.594727,607.819519 
	C524.277832,607.663574 523.960938,607.507690 523.644104,607.351746 
	C525.505371,598.394775 527.366638,589.437805 529.227905,580.481079 
	C514.425354,577.682251 500.001190,585.439026 492.191040,594.521423 
	C490.114075,596.936768 489.326355,600.460754 487.373291,604.101868 
M210.114227,598.334106 
	C209.776764,599.765076 209.439301,601.196045 209.101868,602.627014 
	C211.773926,603.222168 214.558868,604.588623 217.089645,604.218323 
	C220.290436,603.749939 222.764603,601.330261 222.974976,597.659729 
	C223.288193,592.195068 223.526001,586.530029 218.189194,583.076050 
	C211.638596,578.836426 204.532990,578.387329 196.841537,579.876038 
	C185.015610,582.165039 175.207657,595.201843 182.270645,607.293274 
	C186.649490,614.789734 192.720535,621.281921 197.810684,628.383484 
	C202.203918,634.512695 204.336411,640.881104 200.045715,647.801880 
	C197.752472,651.500916 191.920181,654.291077 187.810898,652.837158 
	C184.147034,651.540955 181.376770,649.018433 181.005890,644.744873 
	C180.576340,639.795227 183.126816,635.726013 187.784897,634.053101 
	C189.416718,633.467041 191.138260,633.130859 192.825134,632.678833 
	C191.109451,627.859375 186.447067,624.310303 182.313004,625.059631 
	C174.473145,626.480713 170.293762,630.015503 168.158081,637.808105 
	C166.196793,644.964294 169.409317,653.261475 174.867081,657.003113 
	C180.399612,660.796021 186.599899,660.937134 193.003815,661.092102 
	C203.917496,661.356018 214.813156,653.783386 217.571915,645.808350 
	C221.141769,635.488586 219.119827,626.040771 211.464828,617.889526 
	C207.328995,613.485657 203.210571,608.980774 199.752945,604.052368 
	C197.156509,600.351562 194.673370,596.159302 196.984360,591.090454 
	C198.835678,587.029785 204.191437,584.015259 207.755890,585.304749 
	C211.827621,586.777710 213.142227,591.072021 211.158295,596.394165 
	C210.984451,596.860535 210.859314,597.345032 210.114227,598.334106 
M431.035065,624.695740 
	C430.370483,626.316895 429.844940,628.014038 429.009949,629.542053 
	C427.631409,632.064819 426.515900,634.992737 424.467285,636.836243 
	C419.429657,641.369507 418.981567,646.442078 421.374207,651.780396 
	C423.755157,657.092529 428.342560,659.739502 434.153229,659.979797 
	C441.170807,660.269958 447.467590,658.999878 452.963379,653.768738 
	C457.920624,649.050171 463.846832,645.349609 469.345703,641.200073 
	C468.937561,640.527710 468.529388,639.855347 468.121246,639.182983 
	C464.497223,640.680054 460.873169,642.177063 457.623505,643.519470 
	C456.771973,630.077759 455.916046,616.566895 455.042572,602.778503 
	C450.092865,603.279602 445.796265,603.362427 441.694916,604.299805 
	C440.010437,604.684814 438.153534,606.650330 437.403320,608.350525 
	C435.150269,613.456726 433.403595,618.786316 431.035065,624.695740 
M239.718201,755.809509 
	C241.623199,742.230225 233.999817,734.429077 224.086716,733.159058 
	C217.602524,732.328369 210.925583,733.002319 204.000000,733.002319 
	C204.000000,739.547668 204.000000,745.653259 204.000000,751.758911 
	C204.000000,757.820862 204.000000,763.882812 204.000000,770.000000 
	C210.518661,770.000000 216.326416,770.004395 222.134155,769.998962 
	C230.729416,769.990967 237.018372,764.948120 239.718201,755.809509 
M436.102783,736.371643 
	C424.368317,746.069763 426.542358,767.053101 445.138580,770.542603 
	C458.402405,773.031494 469.333160,764.450989 468.643158,751.051758 
	C467.681305,732.373596 449.362000,728.681152 436.102783,736.371643 
M660.038879,753.421326 
	C657.332825,747.434204 654.730652,741.395996 651.830078,735.504700 
	C651.273254,734.373840 649.529541,733.158936 648.359070,733.184021 
	C647.156921,733.209778 645.486938,734.447510 644.885986,735.604004 
	C641.855042,741.436646 639.007263,747.370911 636.287781,753.357117 
	C633.836121,758.753479 631.633606,764.263062 629.270264,769.843018 
	C631.405457,769.843018 633.040344,769.843018 634.329834,769.843018 
	C635.770386,766.722107 637.091187,763.860840 638.411682,761.000000 
	C642.175354,761.000000 645.739441,761.458984 649.137939,760.904114 
	C656.134277,759.761780 660.179810,762.597473 662.066833,769.154968 
	C662.142151,769.416809 662.427612,769.618103 662.764465,770.030396 
	C664.066772,769.952271 665.503906,769.866028 667.503906,769.746033 
	C665.057556,764.227234 662.796570,759.126587 660.038879,753.421326 
M765.000000,758.539307 
	C765.000000,756.774353 765.000000,755.009399 765.000000,752.888000 
	C771.621155,752.888000 777.707275,752.888000 783.765808,752.888000 
	C783.765808,751.445923 783.765808,750.372742 783.765808,748.920837 
	C777.467712,748.920837 771.387024,748.920837 765.225952,748.920837 
	C765.225952,744.800476 765.225952,741.067627 765.225952,736.967041 
	C772.191406,736.967041 778.942261,736.967041 786.017395,736.967041 
	C785.864990,735.392273 785.751648,734.221069 785.668213,733.359131 
	C776.839172,733.359131 768.448608,733.359131 760.335571,733.359131 
	C760.335571,745.775940 760.335571,757.832336 760.335571,769.856323 
	C769.285828,769.856323 777.899719,769.856323 786.697266,769.856323 
	C786.697266,768.534058 786.697266,767.370300 786.697266,765.815857 
	C779.334900,765.815857 772.264648,765.815857 765.000000,765.815857 
	C765.000000,763.449768 765.000000,761.474854 765.000000,758.539307 
M281.929749,733.587463 
	C273.396210,733.587463 264.862640,733.587463 256.211273,733.587463 
	C256.211273,745.521667 256.211273,757.575928 256.211273,769.813110 
	C265.160004,769.813110 273.897400,769.813110 282.975494,769.813110 
	C282.862366,768.428162 282.766785,767.258362 282.641052,765.719116 
	C275.212677,765.719116 268.144714,765.719116 261.338654,765.719116 
	C261.338654,761.242981 261.338654,757.174744 261.338654,752.908813 
	C267.629852,752.908813 273.584656,752.908813 279.960297,752.908813 
	C279.889709,751.510925 279.830719,750.342407 279.752655,748.796814 
	C273.310394,748.796814 267.239563,748.796814 261.296936,748.796814 
	C261.296936,744.657959 261.296936,740.923279 261.296936,736.999939 
	C267.394226,736.999939 273.201355,737.119263 278.994537,736.888855 
	C280.024231,736.847839 280.996124,735.353699 281.929749,733.587463 
M695.007751,765.999146 
	C689.640442,765.182007 684.273071,764.364929 678.339417,763.461548 
	C677.541809,764.976990 677.319946,766.767700 680.558838,768.248718 
	C685.875000,770.679443 691.058716,771.909912 696.894714,770.106567 
	C702.504700,768.372986 705.758057,765.315979 705.999817,760.529846 
	C706.244690,755.681946 703.879089,753.044128 697.532532,750.938721 
	C693.763916,749.688538 689.878906,748.650146 686.318787,746.946838 
	C682.110901,744.933716 681.853027,741.911133 685.471130,739.113281 
	C690.755981,735.026428 696.183167,737.031006 701.530518,739.182068 
	C701.908142,739.333923 702.267944,739.530029 702.745544,739.757812 
	C703.273071,738.264648 703.740662,736.941284 704.730103,734.140869 
	C698.067505,733.732849 692.117188,732.721130 686.297363,733.222900 
	C681.873596,733.604370 678.902771,737.459839 678.163330,741.832031 
	C677.499329,745.757935 679.317749,749.273438 683.163391,750.959473 
	C686.798767,752.553284 690.569336,753.984009 694.420227,754.896423 
	C697.674316,755.667358 700.796692,757.056030 700.684570,760.261292 
	C700.615967,762.223694 697.576599,764.082153 695.007751,765.999146 
M546.923950,754.400330 
	C547.352600,754.596863 547.763672,754.859192 548.212769,754.979370 
	C551.577271,755.879944 554.811646,757.190552 553.904663,761.466553 
	C553.145874,765.044067 550.093201,766.370911 546.739685,765.929077 
	C541.915588,765.293579 537.155212,764.173645 531.923523,763.175781 
	C531.823425,763.445374 531.286499,764.891724 530.704285,766.460327 
	C537.286194,770.149353 543.580444,772.196533 550.869995,770.085266 
	C555.435913,768.762817 558.457581,766.414062 558.963928,761.610718 
	C559.484558,756.672363 556.795715,752.632751 552.068909,751.043274 
	C548.739990,749.923828 545.352844,748.967896 541.964355,748.038452 
	C539.178284,747.274292 536.258667,746.658569 536.713196,742.798218 
	C537.208008,738.596191 540.120728,736.853149 543.903015,737.090210 
	C547.946838,737.343689 551.945984,738.307739 556.124573,738.987610 
	C557.554688,735.666382 557.649109,735.423340 554.309753,734.126343 
	C549.138245,732.117859 543.964355,731.971863 538.472900,733.780151 
	C534.402588,735.120422 532.498047,737.510925 532.043579,741.336731 
	C531.531067,745.650818 532.208374,749.686890 536.950012,751.418335 
	C539.945862,752.512329 543.099915,753.173340 546.923950,754.400330 
M484.000000,747.478638 
	C484.000000,749.806335 483.994568,752.134094 484.000916,754.461792 
	C484.026123,763.677124 487.879333,768.700378 496.544159,770.821228 
	C504.532654,772.776550 514.521545,766.661255 514.900024,759.048279 
	C515.326660,750.464478 514.998230,741.843201 514.998230,733.219299 
	C513.467468,733.219299 512.394775,733.219299 511.000000,733.219299 
	C511.000000,739.385254 511.294098,745.363281 510.890839,751.293823 
	C510.645111,754.907043 509.917938,758.740540 508.333221,761.943909 
	C506.454407,765.741882 499.990204,767.422729 495.547821,765.801392 
	C490.570435,763.984741 489.221924,759.551514 489.064697,754.888733 
	C488.820099,747.635742 489.000031,740.368530 489.000031,732.923889 
	C487.009766,733.033936 485.604065,733.111694 484.000000,733.200378 
	C484.000000,737.882996 484.000000,742.186768 484.000000,747.478638 
M367.415222,742.068787 
	C374.809814,735.808533 379.481964,735.273560 387.505249,739.966370 
	C390.467957,741.699158 391.874695,740.267700 393.129120,737.879517 
	C382.743744,729.037659 371.131165,732.433838 364.850098,737.664368 
	C359.650452,741.994263 356.782684,752.541809 361.650055,761.270264 
	C365.139282,767.527405 373.958099,773.386658 385.676208,769.888062 
	C388.429810,769.065796 390.808563,766.987976 393.761871,765.251343 
	C392.086426,763.709290 391.046265,762.751892 390.035034,761.821167 
	C382.806610,768.127075 373.533356,766.819214 368.871918,762.418884 
	C363.107147,756.976929 362.379272,749.881592 367.415222,742.068787 
M609.054810,737.754944 
	C613.240356,737.369080 617.425842,736.983276 621.951965,736.566040 
	C621.866699,735.443237 621.777954,734.274902 621.691895,733.141785 
	C611.362183,733.141785 601.426880,733.141785 591.298584,733.141785 
	C591.298584,734.460449 591.298584,735.624817 591.298584,737.182495 
	C595.657349,737.182495 599.732605,737.182495 604.134033,737.182495 
	C604.134033,748.306458 604.134033,759.039307 604.134033,769.766418 
	C605.890930,769.766418 607.291992,769.766418 609.003784,769.766418 
	C609.003784,759.264282 609.003784,748.991516 609.054810,737.754944 
M729.000000,753.500122 
	C729.000000,758.932617 729.000000,764.365173 729.000000,769.754028 
	C730.910950,769.754028 732.311890,769.754028 734.069336,769.754028 
	C734.069336,758.791809 734.069336,748.068237 734.069336,736.980957 
	C738.171875,736.980957 741.919250,736.980957 746.003052,736.980957 
	C745.862427,735.404602 745.758362,734.237976 745.661743,733.155151 
	C735.653687,733.155151 726.053101,733.155151 716.041992,733.155151 
	C716.114624,734.499146 716.177734,735.666931 716.261169,737.210571 
	C720.693176,737.210571 724.766418,737.210571 729.000000,737.210571 
	C729.000000,742.570618 729.000000,747.536377 729.000000,753.500122 
M324.163391,766.043396 
	C317.566315,766.043396 310.969208,766.043396 304.017700,766.043396 
	C304.017700,754.868530 304.017700,744.143555 304.017700,733.337158 
	C302.149384,733.337158 300.649780,733.337158 299.293945,733.337158 
	C299.293945,745.716980 299.293945,757.759155 299.293945,769.999878 
	C307.041748,769.999878 314.501801,769.843201 321.949585,770.077454 
	C324.906128,770.170471 325.314240,768.928467 324.163391,766.043396 
M408.396088,585.081604 
	C409.259521,587.884705 409.319885,591.547119 411.179108,593.284668 
	C413.812195,595.745300 413.029053,597.001099 411.457764,599.190430 
	C410.313049,600.785339 409.686157,602.751892 408.828369,604.552734 
	C409.282074,604.826355 409.735748,605.100037 410.189453,605.373657 
	C416.483582,601.956055 421.548431,597.558838 423.084900,589.818604 
	C424.119690,584.605530 422.561829,581.050293 417.872009,579.371155 
	C414.504059,578.165283 410.934143,580.218750 408.396088,585.081604 
M572.211365,600.219910 
	C573.040771,599.411011 573.928284,598.653015 574.689453,597.784363 
	C577.782166,594.254944 577.988831,590.147034 574.679810,586.394836 
	C571.729919,583.049866 567.682007,583.282837 563.862244,584.710693 
	C559.855347,586.208496 557.892212,590.247314 559.074829,594.770935 
	C560.117065,598.757446 562.781921,601.160950 567.205322,601.000183 
	C568.694458,600.946045 570.183533,600.892517 572.211365,600.219910 
M413.000000,759.473938 
	C413.000000,750.733337 413.000000,741.992737 413.000000,733.217407 
	C411.124146,733.217407 409.726593,733.217407 408.168762,733.217407 
	C408.168762,745.470215 408.168762,757.506958 408.168762,769.682129 
	C409.826752,769.682129 411.323975,769.682129 413.000000,769.682129 
	C413.000000,766.399719 413.000000,763.430847 413.000000,759.473938 
M342.999817,735.731689 
	C343.069946,730.915527 340.077545,733.577881 338.000000,733.279236 
	C338.000000,739.692017 338.000000,745.653931 338.000000,751.615906 
	C338.000000,757.699768 338.000000,763.783630 338.000000,769.726440 
	C339.957001,769.726440 341.356750,769.726440 343.000000,769.726440 
	C343.000000,758.533875 343.000000,747.612427 342.999817,735.731689 
z"/>
<path fill="#FFFFFF" opacity="1.000000" stroke="none" 
	d="
M395.818726,406.317047 
	C400.725830,408.743774 405.921295,410.169434 409.913971,413.186737 
	C418.734283,419.852417 429.142151,422.191589 439.354401,424.448578 
	C448.375641,426.442322 457.925415,425.901520 467.152832,427.141724 
	C478.867310,428.716217 490.230438,426.517334 501.685486,424.996368 
	C514.023621,423.358215 526.335510,421.502869 538.695679,420.056610 
	C546.965576,419.088959 555.353699,417.768524 563.589233,418.264038 
	C571.479004,418.738739 579.921509,419.980286 586.861511,423.423523 
	C593.482605,426.708649 597.787292,433.350159 600.291199,441.249573 
	C604.889343,455.756439 602.071838,460.966034 601.605103,471.997833 
	C609.662354,469.587433 617.963440,467.903564 625.567566,464.610352 
	C633.592834,461.134766 641.058899,456.293945 648.522766,451.653015 
	C650.186768,450.618378 650.504517,447.611328 652.023315,446.094360 
	C653.426758,444.692688 655.949646,444.426758 657.391724,443.046509 
	C664.521118,436.222504 670.685669,428.613312 674.223694,419.265411 
	C675.505127,415.879669 676.101501,412.234253 677.004578,408.705841 
	C678.326294,403.541382 679.883667,398.420807 680.865723,393.192322 
	C681.406738,390.311768 681.212646,387.227295 680.942993,384.271912 
	C679.864685,372.455811 678.780396,360.558655 673.863770,349.601898 
	C672.046204,345.551575 669.179504,341.642975 665.889221,338.667023 
	C661.891235,335.050964 660.566650,329.455505 655.382874,326.684753 
	C646.846985,322.122314 638.255371,318.066437 628.518555,317.003662 
	C622.539246,316.350983 616.567932,315.465698 610.570129,315.200653 
	C606.877136,315.037476 603.110474,315.657593 599.430481,316.255432 
	C590.223938,317.751007 580.954468,319.038605 571.892334,321.180084 
	C565.730957,322.636047 559.750732,325.102203 553.913147,327.632538 
	C542.818237,332.441711 531.974487,337.832642 520.860413,342.594513 
	C505.592163,349.136292 490.407715,356.006500 474.734528,361.426605 
	C463.100128,365.449982 450.947662,368.609314 438.319611,367.988434 
	C423.519745,367.260803 410.492706,362.017944 399.156433,352.475983 
	C389.634399,344.461090 384.870331,333.403168 379.895294,322.492035 
	C379.126587,320.806152 378.924744,318.848145 378.575470,316.994385 
	C378.489105,316.535828 378.759338,315.628204 379.026367,315.560455 
	C379.683563,315.393738 380.671417,315.317871 381.109558,315.692657 
	C384.487457,318.582031 387.694214,321.672760 391.093811,324.535095 
	C395.336548,328.107330 399.725159,331.505768 404.028473,335.006653 
	C411.370758,340.979797 420.430511,342.928009 429.168793,345.483398 
	C432.044006,346.324188 435.485931,346.473663 438.381317,345.764984 
	C447.006531,343.653809 455.518738,341.056396 464.014069,338.450165 
	C467.936554,337.246826 471.868683,335.884613 475.527954,334.056885 
	C481.535431,331.056305 487.291595,327.556641 493.220978,324.393463 
	C495.610107,323.118866 498.197815,322.222290 500.658630,321.075317 
	C510.213745,316.621613 519.753906,312.135956 529.301270,307.665619 
	C529.545044,307.551514 529.824707,307.508453 530.058289,307.379150 
	C543.569519,299.899475 558.222961,295.482880 573.135071,292.092865 
	C583.173584,289.810791 593.457275,287.575104 603.672668,287.368683 
	C616.013123,287.119293 628.443481,288.663544 640.741760,290.184540 
	C646.308533,290.873016 651.949707,292.762878 657.014771,295.223846 
	C662.633179,297.953705 667.594055,302.018860 672.920959,305.376068 
	C674.988098,306.678925 677.273315,307.635620 678.934875,308.482697 
	C678.998169,309.229034 678.787292,310.311829 679.156555,310.572388 
	C686.855530,316.004242 691.839355,323.787415 695.775085,331.892639 
	C699.717529,340.011688 702.795105,348.759857 704.787598,357.563660 
	C707.273499,368.547394 707.869751,379.933868 706.930115,391.213135 
	C705.683472,406.177490 702.715820,420.651794 695.152710,434.046417 
	C690.993042,441.413452 685.545471,447.598114 680.630249,454.294281 
	C675.620911,461.118713 668.526245,465.127930 662.484558,470.393982 
	C657.011536,475.164307 649.621826,477.910156 642.793030,480.899689 
	C636.381348,483.706512 629.711853,486.096954 622.946777,487.876282 
	C615.849304,489.743011 608.476746,490.543091 601.291382,492.115417 
	C600.025757,492.392365 598.399536,494.016876 598.111816,495.284943 
	C596.117615,504.074341 594.437805,512.934937 592.642334,521.769714 
	C592.482361,522.557068 592.183289,523.315369 592.006653,524.100159 
	C589.990417,533.062805 588.054688,542.044922 585.877869,550.968201 
	C585.642212,551.934204 584.027710,552.563904 582.310913,553.947571 
	C583.642517,543.465576 584.877747,534.193542 585.980652,524.905762 
	C586.746155,518.458984 587.752563,511.999725 587.891357,505.529755 
	C588.082275,496.632843 587.779602,487.707611 587.269104,478.818634 
	C586.802917,470.702484 586.575989,462.429138 584.714966,454.587860 
	C583.506409,449.496246 580.491028,443.901581 576.533142,440.694305 
	C573.462280,438.205780 567.687988,438.612823 563.101929,438.536285 
	C555.954834,438.416992 548.791809,438.892609 541.644226,439.277802 
	C535.354065,439.616791 529.081238,440.280792 522.790771,440.610687 
	C516.716919,440.929291 510.629181,440.971588 504.549744,441.195312 
	C498.193481,441.429230 491.818146,442.198730 485.490143,441.901886 
	C475.589081,441.437378 465.716339,440.320282 455.841583,439.375183 
	C452.958710,439.099274 450.032837,438.736725 447.261780,437.942474 
	C441.979431,436.428497 436.624023,434.963806 431.610992,432.766693 
	C425.030151,429.882416 418.509705,426.699615 412.409790,422.923859 
	C406.328339,419.159546 400.729095,414.593658 395.056244,410.201202 
	C392.223511,408.007812 389.651062,405.466187 387.068207,402.970978 
	C386.435516,402.359772 386.223969,401.312592 386.603546,399.825653 
	C389.589478,401.896454 392.575439,403.967285 395.818726,406.317047 
z"/>
<path fill="#FFFFFF" opacity="1.000000" stroke="none" 
	d="
M365.079895,432.925232 
	C365.381165,428.696808 365.974945,424.464203 365.915161,420.240906 
	C365.825378,413.900452 365.498779,407.544037 364.859772,401.236267 
	C364.262756,395.342468 363.147186,389.500061 362.220917,383.641205 
	C361.727234,380.518799 361.151093,377.409454 361.415070,373.545074 
	C362.602356,375.366699 364.274078,377.038025 364.894012,379.035706 
	C367.738556,388.202057 370.766998,397.355438 372.808594,406.714325 
	C374.792542,415.809082 375.800262,425.129944 376.971039,434.385162 
	C378.112885,443.411865 379.061615,452.469757 379.782104,461.538818 
	C379.990356,464.160034 379.118988,466.867065 378.791351,469.189087 
	C385.846313,468.756073 392.349823,468.334137 398.856293,467.964050 
	C405.249786,467.600342 411.643036,467.122070 418.042297,466.997467 
	C425.988159,466.842712 433.950836,466.752380 441.886139,467.097198 
	C448.710449,467.393768 455.528534,468.170990 462.308380,469.051300 
	C468.218719,469.818756 474.504425,470.069214 479.766785,472.446381 
	C482.376587,473.625336 484.698944,473.221375 486.988342,474.035828 
	C492.139832,475.868622 497.259369,477.803070 502.327789,479.854553 
	C508.799713,482.474182 515.331482,484.995361 521.609680,488.030243 
	C527.844116,491.044006 533.794983,494.644135 539.875183,497.977997 
	C540.150330,498.128876 540.488220,498.161438 540.774414,498.296600 
	C548.705017,502.041229 555.266052,507.914398 562.756653,512.318909 
	C562.326416,513.257996 561.941223,514.098938 561.443604,515.185242 
	C558.399170,513.387878 555.453918,511.672424 552.539062,509.906860 
	C552.009521,509.586151 551.675537,508.905670 551.130066,508.653961 
	C546.961975,506.730713 542.736511,504.930786 538.582336,502.978729 
	C533.943665,500.798920 529.484131,498.184692 524.725220,496.326599 
	C517.786194,493.617371 510.707001,491.226166 503.581024,489.047882 
	C496.267029,486.812042 488.917908,484.477020 481.414581,483.130188 
	C472.634430,481.554138 463.691498,480.719452 454.782318,480.065735 
	C441.030182,479.056610 427.318817,479.316559 413.629791,481.640930 
	C405.679871,482.990784 397.533325,483.147522 389.498383,484.047760 
	C385.985657,484.441345 382.509003,485.261871 379.066345,486.096344 
	C378.280304,486.286865 377.210327,487.266785 377.106201,488.001678 
	C376.223297,494.233398 375.533875,500.492462 374.738342,507.144897 
	C406.756409,499.644623 438.429871,500.189056 469.505798,506.398407 
	C500.956482,512.682617 530.998047,524.059021 558.522827,541.122375 
	C558.975342,541.402893 558.888977,542.552673 559.091797,543.466675 
	C524.972046,529.201355 489.762970,521.011292 453.270264,519.119934 
	C417.326569,517.257080 382.375305,524.979431 346.473724,533.050415 
	C353.150452,506.445618 362.883972,481.947327 363.960083,456.638916 
	C360.212250,453.376007 357.189423,450.565155 353.972595,447.997314 
	C351.132507,445.730225 347.913086,443.922272 345.174866,441.549561 
	C343.462128,440.065491 342.330292,437.911011 340.271027,435.169800 
	C336.852234,434.903076 334.330536,432.355438 335.042664,426.991058 
	C334.564880,427.357056 334.087128,427.723053 333.609344,428.089050 
	C332.109650,426.274231 330.351929,424.613586 329.157990,422.616028 
	C325.390961,416.313599 321.284424,410.125977 318.356140,403.435730 
	C315.555756,397.037659 313.729095,390.146698 312.095428,383.323669 
	C310.496765,376.646973 309.050293,369.816132 308.688263,362.991852 
	C308.268951,355.087982 308.999634,347.111420 309.455170,339.179260 
	C309.611145,336.462952 310.342987,333.761200 310.988312,331.095520 
	C312.261414,325.836884 313.733704,320.626099 314.985992,315.362762 
	C317.019440,306.816193 321.782684,299.718628 326.770996,292.726776 
	C329.464783,288.950958 331.732635,284.729706 335.011230,281.554779 
	C337.950378,278.708557 342.381104,277.444580 345.494812,274.727386 
	C351.007385,269.916840 357.741272,267.661926 364.318878,265.483307 
	C370.041107,263.588013 376.125458,262.735474 382.416992,262.467804 
	C391.691650,262.073242 400.216858,263.917053 408.625732,267.069214 
	C412.775543,268.624817 416.478333,271.454681 420.676086,272.783081 
	C428.804413,275.355347 434.878540,281.131073 441.868805,285.451843 
	C445.960999,287.981323 449.831451,290.948151 453.466980,294.103790 
	C455.215332,295.621338 456.148041,298.059967 457.522430,300.031097 
	C459.922607,303.473389 462.452118,306.828491 464.755920,310.332855 
	C465.285431,311.138306 465.120117,312.400543 465.340942,313.904816 
	C458.991211,309.296600 453.244812,304.979767 447.325470,300.914734 
	C445.414703,299.602539 443.015259,299.021637 440.900970,297.981018 
	C438.438385,296.768921 436.161926,295.071411 433.595917,294.197723 
	C426.997345,291.951050 420.309875,289.950226 413.604095,288.040222 
	C410.397095,287.126801 407.032715,286.777527 403.801239,285.936096 
	C396.622772,284.066895 389.652313,285.331604 382.703674,287.099213 
	C377.740540,288.361816 372.554413,289.150024 367.909515,291.167023 
	C361.018951,294.159241 355.479401,298.923889 350.204132,304.599487 
	C346.358276,308.737183 342.602539,312.455811 340.575195,317.748016 
	C338.404907,323.413391 335.890930,328.969666 334.105011,334.752075 
	C332.839233,338.850403 331.931091,343.244385 331.923950,347.508179 
	C331.908569,356.678619 331.805542,365.969055 333.193726,374.986359 
	C334.470276,383.278778 337.132233,391.479553 340.175812,399.336426 
	C342.277130,404.760803 345.756042,409.753601 349.179016,414.538940 
	C353.801727,421.001587 358.961639,427.079956 364.346954,433.772217 
	C365.138184,434.352844 365.473480,434.484528 365.808807,434.616180 
	C365.565857,434.052521 365.322876,433.488892 365.079895,432.925232 
z"/>
<path fill="#FFFFFF" opacity="1.000000" stroke="none" 
	d="
M736.445801,651.204956 
	C728.174255,658.453003 718.859192,662.385132 707.874817,658.868896 
	C704.609436,657.823547 701.894348,655.059143 699.399048,653.396912 
	C695.774048,655.392151 691.797546,659.085510 687.376526,659.730225 
	C674.454529,661.614868 670.407532,653.887878 672.347168,642.355469 
	C673.518005,635.394348 675.508850,628.571960 676.706604,621.614136 
	C676.979980,620.026062 675.954773,617.363708 674.690552,616.621887 
	C673.615112,615.990967 670.665894,616.875488 669.729736,618.040771 
	C667.878662,620.344788 666.370667,623.174133 665.577271,626.024597 
	C664.066956,631.450989 663.170959,637.047485 661.996155,642.568359 
	C660.858582,647.914490 659.691223,653.254211 658.490051,658.814209 
	C653.384521,658.814209 648.085022,658.814209 642.492798,658.814209 
	C642.974915,656.039001 643.465088,653.217834 644.015930,650.047180 
	C629.980469,663.671448 612.784058,662.844238 605.552490,652.131714 
	C594.714233,663.382996 580.182861,662.244080 577.480408,652.051331 
	C572.818665,657.112244 567.301147,660.111328 560.333130,660.016907 
	C553.606628,659.925720 548.699097,655.551819 549.133301,648.723755 
	C549.584229,641.633179 550.951172,634.583984 552.194275,627.565735 
	C553.261414,621.540710 554.715759,615.584167 556.005493,609.598755 
	C556.477295,607.409119 557.148926,605.743164 560.076355,605.930237 
	C564.333252,606.202271 568.620483,606.000061 573.349670,606.000061 
	C570.550720,618.540588 567.776794,630.461792 565.338562,642.451233 
	C564.980896,644.210022 565.638611,647.065308 566.886353,648.003235 
	C568.068665,648.891968 571.470337,648.686096 572.441162,647.627441 
	C574.751343,645.108459 576.988708,642.009766 577.848267,638.771667 
	C580.198425,629.917969 581.821655,620.871277 583.526184,612.870789 
	C582.285400,610.559326 581.333435,608.785828 580.279297,606.822144 
	C584.604431,605.736084 584.604431,605.736084 588.098450,591.413513 
	C593.633118,590.647461 599.188538,589.878540 604.830383,589.097595 
	C603.623108,594.845337 602.482544,600.275452 601.300293,605.904419 
	C603.111694,605.904419 604.760315,605.904419 606.704468,605.904419 
	C606.704468,607.616028 606.704468,609.157227 606.704468,610.922241 
	C604.586426,610.922241 602.626099,610.922241 600.330688,610.922241 
	C597.867920,622.009216 595.276367,632.930115 593.083618,643.930542 
	C592.260132,648.062012 595.377991,650.015503 599.269165,648.242432 
	C602.823059,646.622986 604.868713,644.053711 605.031677,639.952881 
	C605.502991,628.090271 609.834595,617.935974 618.676514,609.817871 
	C623.384583,605.495239 634.141907,603.712708 639.763672,605.846130 
	C645.351440,607.966675 647.788818,616.452332 643.561279,621.501160 
	C642.206177,623.119629 638.470337,622.744568 635.187012,623.410767 
	C635.612671,620.862793 636.017273,619.686035 635.956909,618.533691 
	C635.843201,616.362915 635.461304,614.206299 635.190857,612.043762 
	C633.151611,613.177368 630.047241,613.822998 629.264221,615.532104 
	C626.421997,621.736084 624.331055,628.286987 622.026855,634.732056 
	C621.651978,635.780518 621.695312,636.970825 621.436584,638.069946 
	C620.495850,642.066467 620.266296,646.756287 623.772949,648.743591 
	C626.524780,650.303101 631.207092,650.114136 634.378967,648.939331 
	C641.641968,646.249573 646.591675,641.251953 648.104736,632.895569 
	C650.630005,618.948975 653.962952,605.149231 656.903381,591.276489 
	C657.170044,590.018738 657.056458,588.680420 657.130981,587.142639 
	C662.693237,586.322388 668.096741,585.525513 674.221375,584.622314 
	C672.427490,593.124695 670.792908,600.871765 669.346619,607.726501 
	C674.011475,607.161682 678.813782,606.079834 683.602478,606.136719 
	C688.713623,606.197388 692.431213,610.407410 691.885498,615.628479 
	C690.961304,624.470886 689.704712,633.323975 687.780029,641.993225 
	C687.044373,645.307068 687.151062,648.140076 689.992676,648.660400 
	C692.027466,649.033020 695.695923,647.069946 696.671997,645.150452 
	C698.282776,641.982666 698.179565,637.978455 699.023499,634.379456 
	C702.021240,621.596069 706.253906,609.468140 720.858215,605.855652 
	C725.055542,604.817383 729.956909,605.272034 734.235291,606.296326 
	C738.483154,607.313232 740.135925,614.333313 738.527100,620.025513 
	C735.185913,631.846924 726.230347,636.487793 715.182068,638.320190 
	C715.416138,642.395447 712.977600,647.432922 718.036377,649.351929 
	C723.718994,651.507629 728.961182,649.415039 733.882812,645.775208 
	C740.665466,640.758972 741.438538,633.303589 742.992310,626.064331 
	C744.408508,619.465820 745.773010,612.856323 747.251160,605.819458 
	C752.678162,607.029480 758.521423,604.117432 763.434814,607.459595 
	C767.737488,606.992981 772.351013,605.919861 776.901855,606.140503 
	C782.931824,606.432861 786.282043,610.022644 785.863098,615.946350 
	C785.373901,622.863403 783.885254,629.713257 782.750671,636.579102 
	C782.437012,638.477600 781.940247,640.361511 781.350464,642.195129 
	C780.420227,645.087280 780.836060,648.106262 783.755249,648.662720 
	C785.590149,649.012512 788.368591,647.156799 789.932861,645.529968 
	C792.194336,643.178284 792.443176,638.287781 797.633667,640.318481 
	C796.971985,650.313416 788.255737,661.704041 775.327393,660.025085 
	C771.018066,659.465515 765.509277,655.377991 766.084534,650.083679 
	C766.922485,642.372437 768.105103,634.679138 769.579041,627.062988 
	C770.608337,621.744263 769.722473,615.893433 767.121033,616.194397 
	C762.736328,616.701782 760.845947,620.244568 759.945190,624.330261 
	C757.660034,634.694519 755.132263,645.010376 753.124573,655.427246 
	C752.587097,658.215942 751.705200,659.108032 749.061523,659.032898 
	C744.764465,658.910828 740.461426,658.999939 735.923828,658.999939 
	C736.335083,656.684875 736.670410,654.797058 737.324402,652.394287 
	C737.683472,651.339661 737.723938,650.799988 737.764404,650.260376 
	C737.324890,650.575256 736.885315,650.890076 736.445801,651.204956 
M728.684998,621.844299 
	C729.099976,620.635681 729.955994,619.380310 729.833801,618.228638 
	C729.611755,616.135071 728.808533,614.103271 728.247864,612.045715 
	C726.489197,613.125305 724.002625,613.789368 723.105530,615.360840 
	C720.179077,620.487061 717.832764,625.944458 715.263245,631.274414 
	C721.780029,630.493652 725.878296,627.611084 728.684998,621.844299 
z"/>
<path fill="#FFFFFF" opacity="1.000000" stroke="none" 
	d="
M311.807617,641.490234 
	C311.493896,642.530457 311.336609,643.188232 311.133087,644.039490 
	C318.910126,642.128052 316.559753,635.446472 317.897095,630.796570 
	C320.409973,622.059204 324.275696,614.319153 331.724731,608.842285 
	C336.691284,605.190674 342.557373,604.401123 348.476898,605.075562 
	C356.290192,605.965698 359.756592,614.303833 356.118896,622.614197 
	C351.778900,632.529053 343.564362,636.742065 333.379517,638.347290 
	C333.301422,638.515015 333.061951,638.800476 333.046204,639.097778 
	C332.835052,643.079102 332.210022,648.057129 336.485596,649.553955 
	C341.222626,651.212280 346.267395,649.851562 350.849060,646.827332 
	C356.190948,643.301208 356.682434,637.955872 358.165649,632.568970 
	C359.756500,626.791382 361.962372,620.924316 365.163818,615.901978 
	C372.231293,604.814819 384.241241,602.904846 392.856720,606.363159 
	C397.501709,608.227722 398.153168,612.845398 397.676910,616.472839 
	C395.707855,631.470215 384.519806,637.003845 373.634796,638.075989 
	C373.515289,638.087769 373.415710,638.302185 373.306793,638.421997 
	C373.218933,638.558716 373.029968,638.721985 373.057861,638.828308 
	C373.976501,642.329407 373.831604,647.310730 376.107544,648.971802 
	C379.484955,651.436768 384.538452,650.905457 388.488586,648.078857 
	C391.122742,646.193970 393.601959,644.086914 396.282532,642.274536 
	C398.033478,641.090698 400.020844,640.256470 403.021454,638.676270 
	C396.006744,654.203186 380.898468,663.907043 366.420502,658.772827 
	C362.371277,657.336853 359.270844,653.225403 355.494385,650.144897 
	C348.329346,658.426941 338.211578,662.384094 325.953613,658.911133 
	C320.376282,657.330994 317.164886,653.282654 316.746094,646.873657 
	C312.185852,650.317566 308.144318,653.885620 303.617950,656.663696 
	C297.277069,660.555542 284.045807,663.185852 276.137939,653.808411 
	C270.258545,658.256287 264.090302,662.138794 256.212341,659.048462 
	C252.749756,657.690063 250.736710,655.236450 250.894363,652.130432 
	C247.852280,654.294739 244.833176,657.567322 241.145218,658.744507 
	C237.588211,659.879944 233.081909,659.690491 229.459824,658.571167 
	C224.529175,657.047546 222.196899,650.489380 223.300308,645.257324 
	C226.028900,632.318848 228.596390,619.346375 231.267868,606.194336 
	C236.693481,606.194336 242.154770,606.194336 247.766129,606.194336 
	C245.176224,617.893005 242.422653,629.500916 240.167465,641.204712 
	C239.705856,643.600403 241.112167,646.356018 241.657455,648.945679 
	C243.991135,647.233704 247.602051,645.983337 248.418777,643.723206 
	C250.859756,636.968140 252.316910,629.843323 253.944717,622.813354 
	C255.212524,617.338135 256.160797,611.788940 257.275055,606.151123 
	C262.698700,606.151123 268.004547,606.151123 273.726166,606.151123 
	C271.223297,617.620361 268.712189,629.011230 266.279938,640.418945 
	C265.974030,641.853821 265.740417,643.465332 266.092834,644.835693 
	C266.474091,646.318115 267.581879,647.613770 268.372772,648.990845 
	C270.247314,647.802551 272.602295,646.988892 273.887573,645.340942 
	C275.992737,642.641846 277.523956,639.461548 279.080383,636.374878 
	C282.392303,629.806885 285.698334,623.229431 288.742004,616.535400 
	C290.428772,612.825623 290.510406,607.042053 293.223480,605.455017 
	C297.384155,603.021362 303.190338,603.400757 309.028839,602.469788 
	C309.376099,608.793579 309.584717,614.482239 310.026306,620.152771 
	C310.570892,627.145691 311.309387,634.123413 311.807617,641.490234 
M288.213593,650.970093 
	C293.996307,649.139343 295.673981,645.067505 295.059143,639.317200 
	C294.391266,633.070862 294.185577,626.775085 293.744598,619.980225 
	C291.192261,625.282349 288.857941,630.098022 286.569183,634.935242 
	C286.324951,635.451538 286.125610,636.161499 286.279541,636.667847 
	C288.577179,644.225159 288.301086,644.787109 279.334961,647.155579 
	C282.838226,648.821289 285.126953,649.909546 288.213593,650.970093 
M347.999054,618.061340 
	C347.999054,616.108459 347.999054,614.155518 347.999054,611.191528 
	C337.324554,614.833252 336.927002,623.981384 334.074768,632.197876 
	C341.874573,630.430542 345.521240,625.281189 347.999054,618.061340 
M386.785217,612.011719 
	C380.928436,613.133423 374.378693,624.773315 375.601990,631.886108 
	C385.763428,627.660278 388.864044,622.574463 386.785217,612.011719 
z"/>
<path fill="#FFFFFF" opacity="1.000000" stroke="none" 
	d="
M487.659973,603.788818 
	C489.326355,600.460754 490.114075,596.936768 492.191040,594.521423 
	C500.001190,585.439026 514.425354,577.682251 529.227905,580.481079 
	C527.366638,589.437805 525.505371,598.394775 523.644104,607.351746 
	C523.960938,607.507690 524.277832,607.663574 524.594727,607.819519 
	C529.063843,601.871948 533.555725,595.941223 537.992310,589.969421 
	C540.112183,587.115967 541.968262,584.047791 544.277893,581.364258 
	C545.060181,580.455322 546.849609,580.151855 548.212280,580.058044 
	C551.016113,579.865051 553.842529,580.000061 558.092407,580.000061 
	C548.015686,591.692932 538.641418,602.570679 528.791870,614.000000 
	C530.543518,614.000000 531.639099,614.098145 532.712341,613.984741 
	C542.583923,612.941833 546.096680,621.311401 544.890442,628.967773 
	C543.965698,634.837769 542.574646,640.675293 540.861267,646.367859 
	C539.335571,651.436584 539.179993,655.808533 545.299194,659.730652 
	C539.995850,660.239929 536.028198,660.534668 532.083740,661.018555 
	C524.893372,661.900574 523.175903,655.790466 524.180542,650.711121 
	C525.643372,643.315247 527.979187,636.094788 529.553711,628.716492 
	C529.983887,626.700684 529.593262,624.033020 528.528076,622.317078 
	C527.580994,620.791260 525.069275,619.247375 523.451782,619.438110 
	C522.144043,619.592285 520.503113,622.171631 520.103271,623.924561 
	C517.460571,635.510925 515.113403,647.164673 512.652649,658.879150 
	C507.184235,658.879150 501.876038,658.879150 496.363495,658.879150 
	C501.305847,635.617676 506.229248,612.445435 511.262634,588.755615 
	C500.088745,594.531006 496.379150,603.547363 498.873993,617.431641 
	C490.251282,619.019592 486.167297,614.286072 487.659973,603.788818 
z"/>
<path fill="#FFFFFF" opacity="1.000000" stroke="none" 
	d="
M210.412888,598.077637 
	C210.859314,597.345032 210.984451,596.860535 211.158295,596.394165 
	C213.142227,591.072021 211.827621,586.777710 207.755890,585.304749 
	C204.191437,584.015259 198.835678,587.029785 196.984360,591.090454 
	C194.673370,596.159302 197.156509,600.351562 199.752945,604.052368 
	C203.210571,608.980774 207.328995,613.485657 211.464828,617.889526 
	C219.119827,626.040771 221.141769,635.488586 217.571915,645.808350 
	C214.813156,653.783386 203.917496,661.356018 193.003815,661.092102 
	C186.599899,660.937134 180.399612,660.796021 174.867081,657.003113 
	C169.409317,653.261475 166.196793,644.964294 168.158081,637.808105 
	C170.293762,630.015503 174.473145,626.480713 182.313004,625.059631 
	C186.447067,624.310303 191.109451,627.859375 192.825134,632.678833 
	C191.138260,633.130859 189.416718,633.467041 187.784897,634.053101 
	C183.126816,635.726013 180.576340,639.795227 181.005890,644.744873 
	C181.376770,649.018433 184.147034,651.540955 187.810898,652.837158 
	C191.920181,654.291077 197.752472,651.500916 200.045715,647.801880 
	C204.336411,640.881104 202.203918,634.512695 197.810684,628.383484 
	C192.720535,621.281921 186.649490,614.789734 182.270645,607.293274 
	C175.207657,595.201843 185.015610,582.165039 196.841537,579.876038 
	C204.532990,578.387329 211.638596,578.836426 218.189194,583.076050 
	C223.526001,586.530029 223.288193,592.195068 222.974976,597.659729 
	C222.764603,601.330261 220.290436,603.749939 217.089645,604.218323 
	C214.558868,604.588623 211.773926,603.222168 209.101868,602.627014 
	C209.439301,601.196045 209.776764,599.765076 210.412888,598.077637 
z"/>
<path fill="#FFFFFF" opacity="1.000000" stroke="none" 
	d="
M431.247223,624.362244 
	C433.403595,618.786316 435.150269,613.456726 437.403320,608.350525 
	C438.153534,606.650330 440.010437,604.684814 441.694916,604.299805 
	C445.796265,603.362427 450.092865,603.279602 455.042572,602.778503 
	C455.916046,616.566895 456.771973,630.077759 457.623505,643.519470 
	C460.873169,642.177063 464.497223,640.680054 468.121246,639.182983 
	C468.529388,639.855347 468.937561,640.527710 469.345703,641.200073 
	C463.846832,645.349609 457.920624,649.050171 452.963379,653.768738 
	C447.467590,658.999878 441.170807,660.269958 434.153229,659.979797 
	C428.342560,659.739502 423.755157,657.092529 421.374207,651.780396 
	C418.981567,646.442078 419.429657,641.369507 424.467285,636.836243 
	C426.515900,634.992737 427.631409,632.064819 429.009949,629.542053 
	C429.844940,628.014038 430.370483,626.316895 431.247223,624.362244 
M433.604218,642.920410 
	C431.544342,644.346069 429.484497,645.771667 426.224274,648.028015 
	C429.192200,649.029419 432.050446,651.013611 434.453522,650.564148 
	C438.001526,649.900574 441.337280,647.708862 441.029114,642.901550 
	C440.550873,635.440735 440.264282,627.967651 439.896454,620.499817 
	C437.370575,627.654602 430.205078,633.505920 433.604218,642.920410 
z"/>
<path fill="#FFFFFF" opacity="1.000000" stroke="none" 
	d="
M239.412170,756.104248 
	C237.018372,764.948120 230.729416,769.990967 222.134155,769.998962 
	C216.326416,770.004395 210.518661,770.000000 204.000000,770.000000 
	C204.000000,763.882812 204.000000,757.820862 204.000000,751.758911 
	C204.000000,745.653259 204.000000,739.547668 204.000000,733.002319 
	C210.925583,733.002319 217.602524,732.328369 224.086716,733.159058 
	C233.999817,734.429077 241.623199,742.230225 239.412170,756.104248 
M231.006729,761.487976 
	C238.206512,754.854919 235.925003,740.683472 224.573654,738.115906 
	C219.607712,736.992676 214.366608,737.085815 209.263184,736.627808 
	C209.263184,746.981323 209.263184,756.361694 209.263184,766.000000 
	C211.653946,766.000000 213.784851,765.971619 215.914749,766.005676 
	C221.153992,766.089417 226.414261,766.280457 231.006729,761.487976 
z"/>
<path fill="#FFFFFF" opacity="1.000000" stroke="none" 
	d="
M436.441345,736.196045 
	C449.362000,728.681152 467.681305,732.373596 468.643158,751.051758 
	C469.333160,764.450989 458.402405,773.031494 445.138580,770.542603 
	C426.542358,767.053101 424.368317,746.069763 436.441345,736.196045 
M462.663391,746.135071 
	C462.172729,745.311951 461.655243,744.503479 461.195740,743.663330 
	C457.690948,737.255310 449.450500,735.130981 441.821594,738.678894 
	C435.642944,741.552307 432.121216,749.821411 434.460754,755.962341 
	C437.397705,763.671387 445.922455,768.174011 453.440674,765.840210 
	C459.885101,763.839905 466.063202,755.260681 462.663391,746.135071 
z"/>
<path fill="#FFFFFF" opacity="1.000000" stroke="none" 
	d="
M660.287231,753.723633 
	C662.796570,759.126587 665.057556,764.227234 667.503906,769.746033 
	C665.503906,769.866028 664.066772,769.952271 662.764465,770.030396 
	C662.427612,769.618103 662.142151,769.416809 662.066833,769.154968 
	C660.179810,762.597473 656.134277,759.761780 649.137939,760.904114 
	C645.739441,761.458984 642.175354,761.000000 638.411682,761.000000 
	C637.091187,763.860840 635.770386,766.722107 634.329834,769.843018 
	C633.040344,769.843018 631.405457,769.843018 629.270264,769.843018 
	C631.633606,764.263062 633.836121,758.753479 636.287781,753.357117 
	C639.007263,747.370911 641.855042,741.436646 644.885986,735.604004 
	C645.486938,734.447510 647.156921,733.209778 648.359070,733.184021 
	C649.529541,733.158936 651.273254,734.373840 651.830078,735.504700 
	C654.730652,741.395996 657.332825,747.434204 660.287231,753.723633 
M651.035095,745.355469 
	C650.253601,743.307800 649.472107,741.260193 648.487366,738.680054 
	C645.602661,745.039978 642.939636,750.911072 640.288574,756.755859 
	C645.685242,756.755859 650.744934,756.755859 656.260742,756.755859 
	C654.561951,752.924011 653.025696,749.458740 651.035095,745.355469 
z"/>
<path fill="#FFFFFF" opacity="1.000000" stroke="none" 
	d="
M765.000000,759.019653 
	C765.000000,761.474854 765.000000,763.449768 765.000000,765.815857 
	C772.264648,765.815857 779.334900,765.815857 786.697266,765.815857 
	C786.697266,767.370300 786.697266,768.534058 786.697266,769.856323 
	C777.899719,769.856323 769.285828,769.856323 760.335571,769.856323 
	C760.335571,757.832336 760.335571,745.775940 760.335571,733.359131 
	C768.448608,733.359131 776.839172,733.359131 785.668213,733.359131 
	C785.751648,734.221069 785.864990,735.392273 786.017395,736.967041 
	C778.942261,736.967041 772.191406,736.967041 765.225952,736.967041 
	C765.225952,741.067627 765.225952,744.800476 765.225952,748.920837 
	C771.387024,748.920837 777.467712,748.920837 783.765808,748.920837 
	C783.765808,750.372742 783.765808,751.445923 783.765808,752.888000 
	C777.707275,752.888000 771.621155,752.888000 765.000000,752.888000 
	C765.000000,755.009399 765.000000,756.774353 765.000000,759.019653 
z"/>
<path fill="#FFFFFF" opacity="1.000000" stroke="none" 
	d="
M281.962219,734.059021 
	C280.996124,735.353699 280.024231,736.847839 278.994537,736.888855 
	C273.201355,737.119263 267.394226,736.999939 261.296936,736.999939 
	C261.296936,740.923279 261.296936,744.657959 261.296936,748.796814 
	C267.239563,748.796814 273.310394,748.796814 279.752655,748.796814 
	C279.830719,750.342407 279.889709,751.510925 279.960297,752.908813 
	C273.584656,752.908813 267.629852,752.908813 261.338654,752.908813 
	C261.338654,757.174744 261.338654,761.242981 261.338654,765.719116 
	C268.144714,765.719116 275.212677,765.719116 282.641052,765.719116 
	C282.766785,767.258362 282.862366,768.428162 282.975494,769.813110 
	C273.897400,769.813110 265.160004,769.813110 256.211273,769.813110 
	C256.211273,757.575928 256.211273,745.521667 256.211273,733.587463 
	C264.862640,733.587463 273.396210,733.587463 281.962219,734.059021 
z"/>
<path fill="#FFFFFF" opacity="1.000000" stroke="none" 
	d="
M695.439575,765.993164 
	C697.576599,764.082153 700.615967,762.223694 700.684570,760.261292 
	C700.796692,757.056030 697.674316,755.667358 694.420227,754.896423 
	C690.569336,753.984009 686.798767,752.553284 683.163391,750.959473 
	C679.317749,749.273438 677.499329,745.757935 678.163330,741.832031 
	C678.902771,737.459839 681.873596,733.604370 686.297363,733.222900 
	C692.117188,732.721130 698.067505,733.732849 704.730103,734.140869 
	C703.740662,736.941284 703.273071,738.264648 702.745544,739.757812 
	C702.267944,739.530029 701.908142,739.333923 701.530518,739.182068 
	C696.183167,737.031006 690.755981,735.026428 685.471130,739.113281 
	C681.853027,741.911133 682.110901,744.933716 686.318787,746.946838 
	C689.878906,748.650146 693.763916,749.688538 697.532532,750.938721 
	C703.879089,753.044128 706.244690,755.681946 705.999817,760.529846 
	C705.758057,765.315979 702.504700,768.372986 696.894714,770.106567 
	C691.058716,771.909912 685.875000,770.679443 680.558838,768.248718 
	C677.319946,766.767700 677.541809,764.976990 678.339417,763.461548 
	C684.273071,764.364929 689.640442,765.182007 695.439575,765.993164 
z"/>
<path fill="#FFFFFF" opacity="1.000000" stroke="none" 
	d="
M546.553467,754.214478 
	C543.099915,753.173340 539.945862,752.512329 536.950012,751.418335 
	C532.208374,749.686890 531.531067,745.650818 532.043579,741.336731 
	C532.498047,737.510925 534.402588,735.120422 538.472900,733.780151 
	C543.964355,731.971863 549.138245,732.117859 554.309753,734.126343 
	C557.649109,735.423340 557.554688,735.666382 556.124573,738.987610 
	C551.945984,738.307739 547.946838,737.343689 543.903015,737.090210 
	C540.120728,736.853149 537.208008,738.596191 536.713196,742.798218 
	C536.258667,746.658569 539.178284,747.274292 541.964355,748.038452 
	C545.352844,748.967896 548.739990,749.923828 552.068909,751.043274 
	C556.795715,752.632751 559.484558,756.672363 558.963928,761.610718 
	C558.457581,766.414062 555.435913,768.762817 550.869995,770.085266 
	C543.580444,772.196533 537.286194,770.149353 530.704285,766.460327 
	C531.286499,764.891724 531.823425,763.445374 531.923523,763.175781 
	C537.155212,764.173645 541.915588,765.293579 546.739685,765.929077 
	C550.093201,766.370911 553.145874,765.044067 553.904663,761.466553 
	C554.811646,757.190552 551.577271,755.879944 548.212769,754.979370 
	C547.763672,754.859192 547.352600,754.596863 546.553467,754.214478 
z"/>
<path fill="#FFFFFF" opacity="1.000000" stroke="none" 
	d="
M484.000000,746.984558 
	C484.000000,742.186768 484.000000,737.882996 484.000000,733.200378 
	C485.604065,733.111694 487.009766,733.033936 489.000031,732.923889 
	C489.000031,740.368530 488.820099,747.635742 489.064697,754.888733 
	C489.221924,759.551514 490.570435,763.984741 495.547821,765.801392 
	C499.990204,767.422729 506.454407,765.741882 508.333221,761.943909 
	C509.917938,758.740540 510.645111,754.907043 510.890839,751.293823 
	C511.294098,745.363281 511.000000,739.385254 511.000000,733.219299 
	C512.394775,733.219299 513.467468,733.219299 514.998230,733.219299 
	C514.998230,741.843201 515.326660,750.464478 514.900024,759.048279 
	C514.521545,766.661255 504.532654,772.776550 496.544159,770.821228 
	C487.879333,768.700378 484.026123,763.677124 484.000916,754.461792 
	C483.994568,752.134094 484.000000,749.806335 484.000000,746.984558 
z"/>
<path fill="#FFFFFF" opacity="1.000000" stroke="none" 
	d="
M367.220154,742.403198 
	C362.379272,749.881592 363.107147,756.976929 368.871918,762.418884 
	C373.533356,766.819214 382.806610,768.127075 390.035034,761.821167 
	C391.046265,762.751892 392.086426,763.709290 393.761871,765.251343 
	C390.808563,766.987976 388.429810,769.065796 385.676208,769.888062 
	C373.958099,773.386658 365.139282,767.527405 361.650055,761.270264 
	C356.782684,752.541809 359.650452,741.994263 364.850098,737.664368 
	C371.131165,732.433838 382.743744,729.037659 393.129120,737.879517 
	C391.874695,740.267700 390.467957,741.699158 387.505249,739.966370 
	C379.481964,735.273560 374.809814,735.808533 367.220154,742.403198 
z"/>
<path fill="#FFFFFF" opacity="1.000000" stroke="none" 
	d="
M609.029297,738.236877 
	C609.003784,748.991516 609.003784,759.264282 609.003784,769.766418 
	C607.291992,769.766418 605.890930,769.766418 604.134033,769.766418 
	C604.134033,759.039307 604.134033,748.306458 604.134033,737.182495 
	C599.732605,737.182495 595.657349,737.182495 591.298584,737.182495 
	C591.298584,735.624817 591.298584,734.460449 591.298584,733.141785 
	C601.426880,733.141785 611.362183,733.141785 621.691895,733.141785 
	C621.777954,734.274902 621.866699,735.443237 621.951965,736.566040 
	C617.425842,736.983276 613.240356,737.369080 609.029297,738.236877 
z"/>
<path fill="#FFFFFF" opacity="1.000000" stroke="none" 
	d="
M729.000000,753.001099 
	C729.000000,747.536377 729.000000,742.570618 729.000000,737.210571 
	C724.766418,737.210571 720.693176,737.210571 716.261169,737.210571 
	C716.177734,735.666931 716.114624,734.499146 716.041992,733.155151 
	C726.053101,733.155151 735.653687,733.155151 745.661743,733.155151 
	C745.758362,734.237976 745.862427,735.404602 746.003052,736.980957 
	C741.919250,736.980957 738.171875,736.980957 734.069336,736.980957 
	C734.069336,748.068237 734.069336,758.791809 734.069336,769.754028 
	C732.311890,769.754028 730.910950,769.754028 729.000000,769.754028 
	C729.000000,764.365173 729.000000,758.932617 729.000000,753.001099 
z"/>
<path fill="#FFFFFF" opacity="1.000000" stroke="none" 
	d="
M324.546997,766.316406 
	C325.314240,768.928467 324.906128,770.170471 321.949585,770.077454 
	C314.501801,769.843201 307.041748,769.999878 299.293945,769.999878 
	C299.293945,757.759155 299.293945,745.716980 299.293945,733.337158 
	C300.649780,733.337158 302.149384,733.337158 304.017700,733.337158 
	C304.017700,744.143555 304.017700,754.868530 304.017700,766.043396 
	C310.969208,766.043396 317.566315,766.043396 324.546997,766.316406 
z"/>
<path fill="#FFFFFF" opacity="1.000000" stroke="none" 
	d="
M408.675659,584.790894 
	C410.934143,580.218750 414.504059,578.165283 417.872009,579.371155 
	C422.561829,581.050293 424.119690,584.605530 423.084900,589.818604 
	C421.548431,597.558838 416.483582,601.956055 410.189453,605.373657 
	C409.735748,605.100037 409.282074,604.826355 408.828369,604.552734 
	C409.686157,602.751892 410.313049,600.785339 411.457764,599.190430 
	C413.029053,597.001099 413.812195,595.745300 411.179108,593.284668 
	C409.319885,591.547119 409.259521,587.884705 408.675659,584.790894 
z"/>
<path fill="#FFFFFF" opacity="1.000000" stroke="none" 
	d="
M571.942017,600.529358 
	C570.183533,600.892517 568.694458,600.946045 567.205322,601.000183 
	C562.781921,601.160950 560.117065,598.757446 559.074829,594.770935 
	C557.892212,590.247314 559.855347,586.208496 563.862244,584.710693 
	C567.682007,583.282837 571.729919,583.049866 574.679810,586.394836 
	C577.988831,590.147034 577.782166,594.254944 574.689453,597.784363 
	C573.928284,598.653015 573.040771,599.411011 571.942017,600.529358 
z"/>
<path fill="#FFFFFF" opacity="1.000000" stroke="none" 
	d="
M413.000000,759.968018 
	C413.000000,763.430847 413.000000,766.399719 413.000000,769.682129 
	C411.323975,769.682129 409.826752,769.682129 408.168762,769.682129 
	C408.168762,757.506958 408.168762,745.470215 408.168762,733.217407 
	C409.726593,733.217407 411.124146,733.217407 413.000000,733.217407 
	C413.000000,741.992737 413.000000,750.733337 413.000000,759.968018 
z"/>
<path fill="#FFFFFF" opacity="1.000000" stroke="none" 
	d="
M342.999908,736.211304 
	C343.000000,747.612427 343.000000,758.533875 343.000000,769.726440 
	C341.356750,769.726440 339.957001,769.726440 338.000000,769.726440 
	C338.000000,763.783630 338.000000,757.699768 338.000000,751.615906 
	C338.000000,745.653931 338.000000,739.692017 338.000000,733.279236 
	C340.077545,733.577881 343.069946,730.915527 342.999908,736.211304 
z"/>
<path fill="#000000" opacity="1.000000" stroke="none" 
	d="
M364.905457,433.130402 
	C365.322876,433.488892 365.565857,434.052521 365.808807,434.616180 
	C365.473480,434.484528 365.138184,434.352844 364.611633,433.998413 
	C364.523926,433.628937 364.627441,433.482269 364.905457,433.130402 
z"/>
<path fill="#000000" opacity="1.000000" stroke="none" 
	d="
M728.393677,622.121704 
	C725.878296,627.611084 721.780029,630.493652 715.263245,631.274414 
	C717.832764,625.944458 720.179077,620.487061 723.105530,615.360840 
	C724.002625,613.789368 726.489197,613.125305 728.247864,612.045654 
	C728.808533,614.103271 729.611755,616.135071 729.833801,618.228638 
	C729.955994,619.380310 729.099976,620.635681 728.393677,622.121704 
z"/>
<path fill="#000000" opacity="1.000000" stroke="none" 
	d="
M736.594116,651.429810 
	C736.885315,650.890076 737.324890,650.575256 737.764404,650.260376 
	C737.723938,650.799988 737.683472,651.339661 737.362610,651.975891 
	C736.968933,651.933167 736.855652,651.793884 736.594116,651.429810 
z"/>
<path fill="#000000" opacity="1.000000" stroke="none" 
	d="
M287.814636,650.983887 
	C285.126953,649.909546 282.838226,648.821289 279.334961,647.155579 
	C288.301086,644.787109 288.577179,644.225159 286.279541,636.667847 
	C286.125610,636.161499 286.324951,635.451538 286.569183,634.935242 
	C288.857941,630.098022 291.192261,625.282349 293.744598,619.980225 
	C294.185577,626.775085 294.391266,633.070862 295.059143,639.317200 
	C295.673981,645.067505 293.996307,649.139343 287.814636,650.983887 
z"/>
<path fill="#000000" opacity="1.000000" stroke="none" 
	d="
M347.992432,618.487915 
	C345.521240,625.281189 341.874573,630.430542 334.074768,632.197876 
	C336.927002,623.981384 337.324554,614.833252 347.999054,611.191528 
	C347.999054,614.155518 347.999054,616.108459 347.992432,618.487915 
z"/>
<path fill="#000000" opacity="1.000000" stroke="none" 
	d="
M387.208313,612.083252 
	C388.864044,622.574463 385.763428,627.660278 375.601990,631.886108 
	C374.378693,624.773315 380.928436,613.133423 387.208313,612.083252 
z"/>
<path fill="#000000" opacity="1.000000" stroke="none" 
	d="
M433.787231,642.554077 
	C430.205078,633.505920 437.370575,627.654602 439.896454,620.499817 
	C440.264282,627.967651 440.550873,635.440735 441.029114,642.901550 
	C441.337280,647.708862 438.001526,649.900574 434.453522,650.564148 
	C432.050446,651.013611 429.192200,649.029419 426.224274,648.028015 
	C429.484497,645.771667 431.544342,644.346069 433.787231,642.554077 
z"/>
<path fill="#000000" opacity="1.000000" stroke="none" 
	d="
M230.734406,761.755798 
	C226.414261,766.280457 221.153992,766.089417 215.914749,766.005676 
	C213.784851,765.971619 211.653946,766.000000 209.263184,766.000000 
	C209.263184,756.361694 209.263184,746.981323 209.263184,736.627808 
	C214.366608,737.085815 219.607712,736.992676 224.573654,738.115906 
	C235.925003,740.683472 238.206512,754.854919 230.734406,761.755798 
z"/>
<path fill="#000000" opacity="1.000000" stroke="none" 
	d="
M462.820251,746.506348 
	C466.063202,755.260681 459.885101,763.839905 453.440674,765.840210 
	C445.922455,768.174011 437.397705,763.671387 434.460754,755.962341 
	C432.121216,749.821411 435.642944,741.552307 441.821594,738.678894 
	C449.450500,735.130981 457.690948,737.255310 461.195740,743.663330 
	C461.655243,744.503479 462.172729,745.311951 462.820251,746.506348 
z"/>
<path fill="#000000" opacity="1.000000" stroke="none" 
	d="
M651.262207,745.674438 
	C653.025696,749.458740 654.561951,752.924011 656.260742,756.755859 
	C650.744934,756.755859 645.685242,756.755859 640.288574,756.755859 
	C642.939636,750.911072 645.602661,745.039978 648.487366,738.680054 
	C649.472107,741.260193 650.253601,743.307800 651.262207,745.674438 
z"/>
</svg>